<?xml version="1.0" standalone="no"?>
<!DOCTYPE svg PUBLIC "-//W3C//DTD SVG 20010904//EN"
 "http://www.w3.org/TR/2001/REC-SVG-20010904/DTD/svg10.dtd">
<svg version="1.0" xmlns="http://www.w3.org/2000/svg"
 width="1556.000000pt" height="2000.000000pt" viewBox="0 0 1556.000000 2000.000000"
 preserveAspectRatio="xMidYMid meet">

<g transform="translate(0.000000,2000.000000) scale(0.100000,-0.100000)"
fill="#000000" stroke="none">
<path d="M4392 14498 c-7 -7 -12 -18 -12 -25 0 -31 -76 -246 -121 -342 -91
-194 -221 -358 -355 -446 -62 -42 -198 -105 -225 -105 -9 0 -20 -7 -23 -15 -6
-17 -6 -17 109 -61 264 -103 463 -363 584 -764 26 -87 43 -126 54 -128 11 -2
18 6 22 25 21 95 87 275 141 383 134 267 302 429 517 500 46 16 67 28 65 37
-2 8 -41 29 -88 47 -201 75 -373 243 -493 481 -44 90 -101 241 -123 330 -19
79 -33 102 -52 83z m57 -475 c20 -60 53 -138 74 -175 70 -124 183 -228 291
-264 26 -9 45 -21 44 -26 -2 -6 -31 -21 -64 -34 -68 -28 -143 -86 -204 -159
-52 -63 -134 -228 -157 -317 -10 -37 -22 -68 -28 -68 -6 0 -21 35 -33 78 -66
226 -201 402 -357 466 -33 13 -61 28 -62 33 -2 6 18 18 44 28 172 65 301 227
377 475 10 30 20 61 22 69 7 23 15 7 53 -106z"/>
<path d="M6108 14019 c-306 -45 -524 -212 -628 -481 -119 -309 -54 -599 175
-779 l65 -51 -112 -64 c-116 -66 -224 -140 -370 -254 -121 -94 -409 -387 -512
-520 -375 -485 -597 -1024 -683 -1660 -14 -104 -18 -199 -18 -415 0 -244 3
-295 22 -400 56 -306 159 -549 328 -774 111 -146 311 -331 449 -412 30 -17 36
-26 31 -43 -81 -280 -193 -802 -231 -1068 l-6 -48 94 0 94 0 28 208 c15 114
43 290 62 392 33 175 89 419 99 429 3 2 64 -19 137 -48 73 -28 178 -62 232
-76 87 -22 102 -23 114 -11 24 24 8 39 -74 74 -232 99 -494 274 -688 461 -489
474 -638 1064 -475 1886 65 327 159 606 304 900 219 444 485 778 860 1082 113
91 296 211 414 272 55 28 103 55 106 60 12 21 -21 63 -74 92 -77 43 -181 151
-219 228 -168 337 22 706 428 832 100 31 317 34 425 5 112 -29 228 -89 289
-150 93 -94 116 -166 130 -407 l5 -95 -42 -21 c-53 -26 -167 -111 -167 -125 0
-6 10 -8 24 -4 37 9 254 33 420 47 145 11 806 6 934 -7 l52 -6 -52 -56 c-242
-265 -477 -975 -429 -1298 15 -105 46 -157 106 -179 39 -15 51 -16 90 -5 189
53 574 456 1093 1145 107 143 203 261 211 263 17 3 377 -86 566 -139 61 -17
117 -32 124 -33 26 -2 59 75 75 174 35 215 92 307 236 380 91 46 177 63 310
62 309 -3 576 -160 690 -407 46 -98 60 -155 60 -237 -1 -231 -156 -445 -375
-518 -58 -19 -105 -55 -105 -81 0 -4 21 -23 48 -40 210 -144 440 -384 594
-624 298 -462 457 -1044 458 -1672 0 -317 -27 -582 -81 -782 -100 -375 -300
-679 -603 -916 -239 -186 -572 -337 -929 -421 -119 -27 -144 -42 -116 -68 23
-21 407 11 482 40 20 7 25 -45 33 -345 l7 -261 90 0 90 0 -6 198 c-3 114 -15
256 -26 336 -12 77 -20 140 -18 140 1 1 51 26 112 56 159 79 307 171 410 255
464 372 674 868 725 1712 43 694 -147 1342 -547 1865 -97 127 -303 341 -417
432 -47 39 -86 72 -86 75 0 3 33 23 73 43 173 90 286 232 323 410 20 91 14
305 -10 393 -24 90 -100 236 -151 293 -195 217 -549 331 -859 277 -235 -41
-395 -141 -467 -291 -17 -37 -44 -117 -59 -178 -23 -94 -30 -111 -46 -110 -11
1 -91 22 -179 48 -299 87 -567 136 -960 176 -307 30 -564 40 -1086 40 -371 0
-480 3 -486 13 -4 6 -10 84 -14 172 -7 169 -19 223 -65 296 -123 195 -425 332
-722 328 -42 -1 -103 -5 -134 -10z"/>
<path d="M5868 13443 c-63 -60 -108 -137 -108 -186 0 -57 62 -140 128 -170 15
-7 21 -16 16 -26 -21 -49 -17 -71 23 -110 78 -78 178 -78 313 0 14 8 26 14 27
15 2 0 -6 36 -18 80 -43 165 -140 325 -248 410 -31 24 -60 44 -64 44 -5 0 -36
-26 -69 -57z"/>
<path d="M10760 12943 c-151 -15 -321 -105 -453 -240 l-58 -59 27 -52 c69
-134 212 -184 294 -102 11 11 20 33 20 49 0 28 0 28 73 33 127 8 177 60 177
183 0 62 -28 197 -40 193 -3 0 -21 -3 -40 -5z"/>
<path d="M3600 12808 c-87 -277 -252 -479 -433 -533 -53 -15 -54 -34 -2 -50
189 -56 347 -251 435 -536 35 -112 45 -116 67 -30 61 241 214 459 375 539 36
18 72 32 81 32 22 0 43 28 26 34 -81 28 -125 49 -173 81 -128 85 -251 283
-305 490 -10 38 -23 71 -28 72 -6 2 -25 -43 -43 -99z m110 -387 c39 -73 104
-134 163 -154 l42 -14 -52 -23 c-30 -13 -71 -42 -96 -69 -45 -48 -99 -150
-112 -208 -4 -18 -10 -33 -14 -33 -4 0 -15 26 -25 58 -10 31 -27 75 -38 96
-30 59 -104 132 -154 153 -24 10 -44 21 -44 25 0 3 14 11 31 17 79 27 154 118
199 241 12 30 23 62 27 70 3 9 12 -7 23 -41 9 -30 32 -83 50 -118z"/>
<path d="M6683 12210 c-121 -26 -189 -102 -153 -170 6 -11 31 -32 57 -47 40
-23 61 -28 139 -31 115 -5 193 15 241 63 84 84 -4 182 -172 190 -38 2 -89 0
-112 -5z"/>
<path d="M8918 11778 c-127 -34 -80 -172 87 -254 66 -32 84 -37 154 -38 66 -1
84 3 108 20 99 73 -48 243 -237 273 -36 6 -67 10 -70 10 -3 -1 -22 -5 -42 -11z"/>
<path d="M6015 11636 c-75 -18 -174 -68 -225 -113 -51 -45 -45 -45 -253 -17
-82 11 -122 13 -129 6 -16 -16 -1 -74 33 -126 31 -47 115 -106 151 -106 16 0
16 -4 -2 -55 -44 -129 -45 -302 -1 -431 45 -133 160 -269 276 -324 91 -43 209
-64 289 -49 207 36 399 215 468 433 29 91 35 254 14 350 -68 305 -346 499
-621 432z m245 -257 c56 -28 119 -87 150 -143 32 -55 37 -85 18 -104 -33 -33
-118 7 -247 119 -74 64 -82 74 -79 103 2 26 9 33 38 43 39 13 68 9 120 -18z
m-284 -149 c21 -17 68 -54 104 -84 83 -70 156 -114 233 -140 51 -18 65 -28 79
-56 65 -128 -55 -285 -233 -306 -221 -26 -436 212 -399 442 24 151 122 216
216 144z"/>
<path d="M9022 11115 c-79 -27 -126 -54 -186 -107 l-38 -33 -132 16 c-219 28
-206 28 -206 -13 0 -51 54 -134 107 -169 26 -16 52 -29 57 -29 32 -1 35 -16
15 -80 -38 -123 -36 -291 7 -422 22 -67 101 -185 160 -237 107 -96 281 -148
407 -122 175 36 336 161 419 324 74 147 92 360 44 513 -93 292 -383 451 -654
359z m283 -249 c28 -13 68 -39 90 -59 50 -43 97 -127 93 -165 -3 -23 -8 -27
-38 -30 -46 -3 -111 35 -217 127 -90 78 -102 106 -61 135 32 22 75 20 133 -8z
m-312 -130 c18 -7 61 -39 97 -71 95 -84 184 -141 267 -171 85 -31 103 -54 103
-131 -1 -93 -51 -162 -153 -208 -50 -23 -69 -27 -135 -24 -145 7 -258 86 -326
229 -28 59 -31 74 -31 160 0 107 18 156 75 204 36 29 57 32 103 12z"/>
<path d="M7275 10545 c-43 -15 -75 -47 -75 -74 0 -32 52 -121 88 -151 l36 -30
-39 -41 c-67 -68 -124 -86 -183 -55 -52 27 -65 50 -58 103 12 93 12 105 -7
117 -42 27 -111 -53 -109 -129 0 -49 13 -77 52 -120 28 -30 28 -31 20 -120
-20 -218 -6 -468 35 -631 44 -174 128 -295 231 -334 60 -22 155 -26 216 -10
88 25 179 126 229 255 54 138 70 244 76 500 6 227 6 229 30 248 71 56 70 205
-2 223 -39 10 -47 -3 -40 -57 6 -43 4 -51 -18 -73 -35 -35 -101 -51 -149 -37
-42 13 -92 67 -109 120 -10 29 -9 35 5 43 67 37 132 124 122 163 -20 79 -230
133 -351 90z m407 -940 c-6 -187 -79 -337 -187 -386 -51 -23 -145 -25 -191 -3
-46 22 -107 93 -124 143 -17 53 -7 74 82 164 101 102 233 158 368 154 l55 -2
-3 -70z"/>
<path d="M7206 8758 c-36 -50 -14 -93 54 -107 66 -14 219 -14 276 0 55 14 82
48 68 86 -16 46 -37 50 -96 18 -71 -39 -142 -40 -215 -2 -63 33 -68 33 -87 5z"/>
<path d="M6402 8620 c-64 -14 -145 -53 -210 -103 -195 -151 -340 -413 -413
-752 -35 -161 -36 -375 -1 -375 5 0 16 35 26 78 66 280 169 537 289 717 42 62
169 195 187 195 6 0 10 -36 10 -91 0 -49 4 -88 8 -85 5 3 21 52 37 110 31 118
32 119 121 119 36 0 65 -8 95 -24 50 -28 48 -22 35 -173 -10 -106 0 -107 40
-5 15 38 31 72 35 75 5 2 24 -29 44 -70 99 -205 127 -525 79 -891 -17 -131
-17 -135 -4 -135 16 0 57 71 80 140 81 243 98 576 40 805 -28 114 -107 267
-175 342 -92 102 -210 147 -323 123z"/>
<path d="M8158 8546 c-76 -31 -129 -75 -183 -151 -89 -125 -137 -267 -157
-466 -20 -193 15 -465 82 -652 29 -80 72 -148 85 -136 3 4 -3 69 -14 145 -41
280 -37 545 10 735 22 86 55 169 82 203 14 19 17 15 50 -57 20 -42 40 -77 44
-77 5 0 3 47 -5 105 -8 58 -12 112 -8 120 3 8 24 24 48 36 52 27 163 33 178 9
5 -8 21 -58 36 -112 15 -54 31 -98 36 -98 4 0 8 41 8 91 l0 90 46 -33 c178
-128 358 -482 465 -918 l11 -45 15 30 c24 46 12 230 -26 382 -69 278 -188 502
-347 652 -84 80 -152 123 -243 151 -82 26 -143 25 -213 -4z"/>
<path d="M5172 6400 c-30 -28 -48 -65 -67 -140 -9 -36 -43 -167 -76 -292 -67
-253 -67 -268 -4 -268 46 0 54 17 104 220 57 232 76 295 90 295 7 0 26 -31 42
-70 111 -259 108 -255 144 -255 18 0 40 3 49 6 8 3 47 71 86 151 39 79 76 143
83 140 6 -2 47 -111 91 -243 45 -132 85 -245 89 -252 5 -6 28 -12 53 -12 41 0
44 2 44 28 0 15 -48 170 -107 346 -118 349 -124 360 -183 336 -42 -18 -76 -67
-130 -191 -25 -60 -49 -112 -53 -115 -4 -4 -43 67 -87 156 -44 90 -85 167 -92
172 -22 14 -53 9 -76 -12z"/>
<path d="M7693 6410 c-128 -7 -127 -7 -131 -173 -2 -98 -7 -140 -19 -164 -16
-29 -15 -33 2 -60 14 -21 19 -50 21 -120 3 -102 15 -136 57 -167 26 -19 41
-21 180 -20 102 1 165 6 191 15 69 25 96 92 42 104 -11 3 -75 -1 -141 -8 -66
-7 -133 -11 -150 -7 -40 8 -55 41 -55 126 l0 71 59 6 c33 3 106 3 164 0 96 -5
106 -4 115 13 10 20 1 57 -18 69 -29 18 -134 34 -222 35 l-98 0 0 74 c0 61 3
75 18 82 9 4 94 8 187 8 94 1 176 5 183 9 20 13 14 44 -13 65 -44 34 -205 53
-372 42z"/>
<path d="M11362 6409 c-129 -17 -279 -124 -337 -242 -86 -178 18 -407 216
-472 38 -13 74 -16 143 -13 117 5 198 41 275 123 142 150 142 363 0 505 -81
81 -179 114 -297 99z m140 -134 c103 -68 161 -249 115 -356 -39 -91 -186 -165
-290 -145 -79 15 -165 130 -174 236 -13 145 39 239 161 287 48 19 143 8 188
-22z"/>
<path d="M6257 6400 c-122 -31 -187 -106 -187 -217 0 -111 51 -150 271 -204
151 -37 192 -58 187 -96 -2 -18 -14 -34 -38 -48 -62 -36 -266 -18 -363 32 -54
27 -106 -23 -78 -75 17 -31 109 -72 202 -88 190 -35 350 15 395 122 28 68 11
140 -47 188 -42 36 -62 43 -184 67 -109 22 -184 51 -210 79 -27 30 -16 80 24
107 29 20 47 23 120 23 50 0 120 -8 166 -19 88 -21 115 -16 115 24 0 14 -11
32 -26 44 -62 48 -259 83 -347 61z"/>
<path d="M6930 6405 c-8 -2 -32 -6 -53 -10 -70 -11 -102 -78 -52 -111 25 -16
99 -15 189 2 l28 6 -3 -300 c-3 -227 -1 -304 8 -313 18 -18 86 -13 101 8 11
15 13 75 10 311 l-5 293 107 -2 c58 -1 111 1 117 4 19 12 21 47 4 68 -9 11
-37 25 -61 30 -46 10 -363 21 -390 14z"/>
<path d="M8492 6400 c-53 -11 -144 -52 -195 -87 -55 -38 -72 -75 -58 -127 5
-22 12 -140 14 -260 5 -245 5 -246 76 -246 61 0 65 7 57 104 l-6 86 79 0 c89
0 84 3 193 -104 69 -67 114 -96 149 -96 25 0 49 16 49 32 0 5 -36 47 -80 94
-44 46 -80 88 -80 93 0 5 21 16 46 26 87 33 153 115 154 191 0 99 -81 219
-183 268 -59 29 -149 40 -215 26z m164 -133 c28 -14 66 -42 84 -63 29 -34 32
-42 28 -86 -6 -58 -33 -92 -98 -121 -49 -22 -188 -34 -264 -23 l-47 7 3 132 3
131 55 29 c48 25 63 28 120 24 43 -3 82 -13 116 -30z"/>
<path d="M9675 6395 c-27 -8 -53 -14 -56 -15 -3 0 -27 -18 -52 -41 -83 -72
-98 -195 -33 -263 37 -39 108 -67 255 -102 159 -37 202 -73 152 -123 -51 -51
-202 -49 -352 3 -67 23 -75 24 -96 11 -15 -10 -23 -25 -23 -45 0 -97 321 -164
482 -101 135 53 177 195 84 286 -36 37 -84 55 -220 84 -113 24 -162 45 -189
83 -17 23 -18 31 -8 57 8 17 27 36 46 45 46 22 180 21 279 -3 90 -22 104 -19
113 17 5 20 0 30 -21 48 -63 55 -264 88 -361 59z"/>
<path d="M12156 6399 c-69 -17 -182 -77 -215 -114 l-31 -36 6 -92 c3 -51 9
-174 13 -275 5 -145 10 -185 21 -192 20 -13 77 -12 101 1 18 9 20 17 14 67 -3
31 -8 69 -11 83 l-5 26 123 6 c257 13 376 82 386 226 14 187 -204 350 -402
300z m132 -113 c94 -34 152 -94 152 -159 0 -61 -24 -95 -88 -125 -51 -24 -69
-27 -172 -27 -63 0 -123 3 -132 7 -16 6 -18 22 -18 127 l0 120 33 24 c63 47
149 60 225 33z"/>
<path d="M3454 6386 c-17 -13 -19 -29 -22 -147 -3 -113 -7 -137 -23 -157 -24
-31 -24 -48 1 -69 18 -16 20 -30 20 -163 0 -157 4 -170 51 -170 45 0 52 21 61
173 5 77 11 143 13 145 10 10 204 22 263 16 l62 -6 0 -148 c0 -130 2 -149 18
-163 19 -17 57 -22 86 -11 14 5 16 29 16 164 0 95 4 161 10 165 15 9 12 51 -3
64 -10 8 -16 53 -20 153 -6 118 -10 145 -24 156 -24 18 -57 15 -77 -7 -15 -16
-17 -37 -14 -137 2 -91 0 -119 -9 -118 -7 1 -81 2 -164 3 l-152 1 6 120 c4 98
2 123 -10 135 -18 19 -63 19 -89 1z"/>
<path d="M4457 6382 c-9 -9 -39 -76 -68 -147 -52 -132 -129 -296 -195 -417
-34 -61 -36 -69 -25 -97 7 -16 19 -32 25 -34 22 -9 60 17 95 65 31 42 40 47
84 53 27 4 104 4 171 0 l122 -7 28 -49 c39 -71 79 -85 121 -43 26 26 17 60
-54 202 -37 75 -94 205 -126 287 -63 165 -73 187 -89 197 -20 14 -73 8 -89
-10z m96 -304 c31 -79 57 -149 57 -155 0 -10 -31 -13 -120 -13 l-119 0 26 68
c14 37 40 106 57 154 17 49 33 88 36 88 3 0 31 -64 63 -142z"/>
<path d="M10284 6386 c-17 -13 -19 -29 -22 -147 -3 -113 -7 -137 -23 -157 -24
-31 -24 -48 1 -69 18 -16 20 -30 20 -163 0 -157 4 -170 51 -170 45 0 52 21 61
173 5 77 11 143 13 145 10 10 204 22 263 16 l62 -6 0 -148 c0 -130 2 -149 18
-163 19 -17 57 -22 86 -11 14 5 16 29 16 164 0 95 4 161 10 165 15 9 12 51 -3
64 -10 8 -16 53 -20 153 -6 118 -10 145 -24 156 -24 18 -57 15 -77 -7 -15 -16
-17 -37 -14 -137 2 -91 0 -119 -9 -118 -7 1 -81 2 -164 3 l-152 1 6 120 c4 98
2 123 -10 135 -18 19 -63 19 -89 1z"/>
</g>
</svg>
